HIERARCHY
ROOT mixamorig:Hips
{
	OFFSET 0.000000 201.639420 0.000000
	CHANNELS 6 Xposition Yposition Zposition Xrotation Yrotation Zrotation
	JOINT mixamorig:Spine
	{
		OFFSET 0.006200 19.524994 -2.481800
		CHANNELS 3 Xrotation Yrotation Zrotation
		JOINT mixamorig:Spine1
		{
			OFFSET -0.000900 22.835007 -2.825400
			CHANNELS 3 Xrotation Yrotation Zrotation
			JOINT mixamorig:Spine2
			{
				OFFSET -0.020600 26.552490 -3.193300
				CHANNELS 3 Xrotation Yrotation Zrotation
				JOINT mixamorig:Neck
				{
					OFFSET -0.060000 30.701813 1.352200
					CHANNELS 3 Xrotation Yrotation Zrotation
					JOINT mixamorig:Head
					{
						OFFSET -0.087200 22.547607 3.670900
						CHANNELS 3 Xrotation Yrotation Zrotation
						JOINT mixamorig:HeadTop_End
						{
							OFFSET -0.830600 40.355194 7.893500
							CHANNELS 3 Xrotation Yrotation Zrotation
							End Site
							{
								OFFSET 0.000000 30.592346 0.000000
							}
						}
						JOINT mixamorig:RightEye
						{
							OFFSET -6.302100 18.118591 16.197100
							CHANNELS 3 Xrotation Yrotation Zrotation
							End Site
							{
								OFFSET 0.000000 30.592346 0.000000
							}
						}
						JOINT mixamorig:LeftEye
						{
							OFFSET 6.741500 18.382690 16.401899
							CHANNELS 3 Xrotation Yrotation Zrotation
							End Site
							{
								OFFSET 0.000000 30.592346 0.000000
							}
						}
					}
				}
				JOINT mixamorig:LeftShoulder
				{
					OFFSET 11.924900 18.230499 1.425400
					CHANNELS 3 Xrotation Yrotation Zrotation
					JOINT mixamorig:LeftArm
					{
						OFFSET 25.435989 -0.697632 -5.229300
						CHANNELS 3 Xrotation Yrotation Zrotation
						JOINT mixamorig:LeftForeArm
						{
							OFFSET 54.684776 0.000000 0.000000
							CHANNELS 3 Xrotation Yrotation Zrotation
							JOINT mixamorig:LeftHand
							{
								OFFSET 55.098175 0.000000 0.000000
								CHANNELS 3 Xrotation Yrotation Zrotation
								JOINT mixamorig:LeftHandMiddle1
								{
									OFFSET 23.369751 0.000000 0.000000
									CHANNELS 3 Xrotation Yrotation Zrotation
									JOINT mixamorig:LeftHandMiddle2
									{
										OFFSET 6.378677 0.000000 0.000000
										CHANNELS 3 Xrotation Yrotation Zrotation
										JOINT mixamorig:LeftHandMiddle3
										{
											OFFSET 6.148331 0.000000 0.000000
											CHANNELS 3 Xrotation Yrotation Zrotation
											JOINT mixamorig:LeftHandMiddle4
											{
												OFFSET 6.582504 0.000000 0.000000
												CHANNELS 3 Xrotation Yrotation Zrotation
												End Site
												{
													OFFSET -1.168900 6.395691 1.028606
												}
											}
										}
									}
								}
								JOINT mixamorig:LeftHandThumb1
								{
									OFFSET 7.235672 -3.848206 5.434273
									CHANNELS 3 Xrotation Yrotation Zrotation
									JOINT mixamorig:LeftHandThumb2
									{
										OFFSET 6.568451 -3.792297 3.792300
										CHANNELS 3 Xrotation Yrotation Zrotation
										JOINT mixamorig:LeftHandThumb3
										{
											OFFSET 6.063080 -3.500519 3.500518
											CHANNELS 3 Xrotation Yrotation Zrotation
											JOINT mixamorig:LeftHandThumb4
											{
												OFFSET 4.793182 -2.767334 2.767349
												CHANNELS 3 Xrotation Yrotation Zrotation
												End Site
												{
													OFFSET 0.101639 6.054260 1.275483
												}
											}
										}
									}
								}
								JOINT mixamorig:LeftHandIndex1
								{
									OFFSET 23.101074 -0.309540 4.992809
									CHANNELS 3 Xrotation Yrotation Zrotation
									JOINT mixamorig:LeftHandIndex2
									{
										OFFSET 6.226883 0.000000 0.000000
										CHANNELS 3 Xrotation Yrotation Zrotation
										JOINT mixamorig:LeftHandIndex3
										{
											OFFSET 6.094330 0.000000 0.000000
											CHANNELS 3 Xrotation Yrotation Zrotation
											JOINT mixamorig:LeftHandIndex4
											{
												OFFSET 5.482605 0.000000 0.000000
												CHANNELS 3 Xrotation Yrotation Zrotation
												End Site
												{
													OFFSET -1.427902 5.233032 0.797164
												}
											}
										}
									}
								}
								JOINT mixamorig:LeftHandRing1
								{
									OFFSET 22.299240 0.021149 -3.964172
									CHANNELS 3 Xrotation Yrotation Zrotation
									JOINT mixamorig:LeftHandRing2
									{
										OFFSET 6.321869 0.000000 0.000000
										CHANNELS 3 Xrotation Yrotation Zrotation
										JOINT mixamorig:LeftHandRing3
										{
											OFFSET 5.899796 0.000000 0.000000
											CHANNELS 3 Xrotation Yrotation Zrotation
											JOINT mixamorig:LeftHandRing4
											{
												OFFSET 6.517899 0.000000 0.000000
												CHANNELS 3 Xrotation Yrotation Zrotation
												End Site
												{
													OFFSET -1.637299 6.232208 0.980890
												}
											}
										}
									}
								}
								JOINT mixamorig:LeftHandPinky1
								{
									OFFSET 20.463791 -0.302338 -8.562233
									CHANNELS 3 Xrotation Yrotation Zrotation
									JOINT mixamorig:LeftHandPinky2
									{
										OFFSET 6.908646 0.000000 0.000000
										CHANNELS 3 Xrotation Yrotation Zrotation
										JOINT mixamorig:LeftHandPinky3
										{
											OFFSET 4.622849 0.000000 0.000000
											CHANNELS 3 Xrotation Yrotation Zrotation
											JOINT mixamorig:LeftHandPinky4
											{
												OFFSET 5.216080 0.000000 0.000000
												CHANNELS 3 Xrotation Yrotation Zrotation
												End Site
												{
													OFFSET -0.606308 5.116241 0.814926
												}
											}
										}
									}
								}
							}
						}
					}
				}
				JOINT mixamorig:RightShoulder
				{
					OFFSET -12.001300 18.284088 1.348900
					CHANNELS 3 Xrotation Yrotation Zrotation
					JOINT mixamorig:RightArm
					{
						OFFSET -25.308500 -0.751312 -5.164599
						CHANNELS 3 Xrotation Yrotation Zrotation
						JOINT mixamorig:RightForeArm
						{
							OFFSET -54.684429 0.000000 0.000000
							CHANNELS 3 Xrotation Yrotation Zrotation
							JOINT mixamorig:RightHand
							{
								OFFSET -55.150291 0.000000 0.000000
								CHANNELS 3 Xrotation Yrotation Zrotation
								JOINT mixamorig:RightHandMiddle1
								{
									OFFSET -23.317566 0.000000 0.000000
									CHANNELS 3 Xrotation Yrotation Zrotation
									JOINT mixamorig:RightHandMiddle2
									{
										OFFSET -6.378403 0.000000 0.000000
										CHANNELS 3 Xrotation Yrotation Zrotation
										JOINT mixamorig:RightHandMiddle3
										{
											OFFSET -6.148193 0.000000 0.000000
											CHANNELS 3 Xrotation Yrotation Zrotation
											JOINT mixamorig:RightHandMiddle4
											{
												OFFSET -6.583389 0.000000 0.000000
												CHANNELS 3 Xrotation Yrotation Zrotation
												End Site
												{
													OFFSET 1.171692 6.395905 1.029786
												}
											}
										}
									}
								}
								JOINT mixamorig:RightHandThumb1
								{
									OFFSET -7.190521 -3.860474 5.435846
									CHANNELS 3 Xrotation Yrotation Zrotation
									JOINT mixamorig:RightHandThumb2
									{
										OFFSET -6.567429 -3.791718 3.791708
										CHANNELS 3 Xrotation Yrotation Zrotation
										JOINT mixamorig:RightHandThumb3
										{
											OFFSET -6.062469 -3.500153 3.500166
											CHANNELS 3 Xrotation Yrotation Zrotation
											JOINT mixamorig:RightHandThumb4
											{
												OFFSET -4.792618 -2.767029 2.767022
												CHANNELS 3 Xrotation Yrotation Zrotation
												End Site
												{
													OFFSET -0.100327 6.053253 1.276754
												}
											}
										}
									}
								}
								JOINT mixamorig:RightHandIndex1
								{
									OFFSET -23.048981 -0.310791 4.992554
									CHANNELS 3 Xrotation Yrotation Zrotation
									JOINT mixamorig:RightHandIndex2
									{
										OFFSET -6.227539 0.000000 0.000000
										CHANNELS 3 Xrotation Yrotation Zrotation
										JOINT mixamorig:RightHandIndex3
										{
											OFFSET -6.095047 0.000000 0.000000
											CHANNELS 3 Xrotation Yrotation Zrotation
											JOINT mixamorig:RightHandIndex4
											{
												OFFSET -5.484772 0.000000 0.000000
												CHANNELS 3 Xrotation Yrotation Zrotation
												End Site
												{
													OFFSET 1.420593 5.237305 0.797056
												}
											}
										}
									}
								}
								JOINT mixamorig:RightHandRing1
								{
									OFFSET -22.246323 0.020569 -3.963762
									CHANNELS 3 Xrotation Yrotation Zrotation
									JOINT mixamorig:RightHandRing2
									{
										OFFSET -6.322128 0.000000 0.000000
										CHANNELS 3 Xrotation Yrotation Zrotation
										JOINT mixamorig:RightHandRing3
										{
											OFFSET -5.900024 0.000000 0.000000
											CHANNELS 3 Xrotation Yrotation Zrotation
											JOINT mixamorig:RightHandRing4
											{
												OFFSET -6.518356 0.000000 0.000000
												CHANNELS 3 Xrotation Yrotation Zrotation
												End Site
												{
													OFFSET 1.636398 6.232697 0.982186
												}
											}
										}
									}
								}
								JOINT mixamorig:RightHandPinky1
								{
									OFFSET -20.411011 -0.303314 -8.561701
									CHANNELS 3 Xrotation Yrotation Zrotation
									JOINT mixamorig:RightHandPinky2
									{
										OFFSET -6.907349 0.000000 0.000000
										CHANNELS 3 Xrotation Yrotation Zrotation
										JOINT mixamorig:RightHandPinky3
										{
											OFFSET -4.623840 0.000000 0.000000
											CHANNELS 3 Xrotation Yrotation Zrotation
											JOINT mixamorig:RightHandPinky4
											{
												OFFSET -5.218353 0.000000 0.000000
												CHANNELS 3 Xrotation Yrotation Zrotation
												End Site
												{
													OFFSET 0.602097 5.118835 0.816273
												}
											}
										}
									}
								}
							}
						}
					}
				}
			}
		}
	}
	JOINT mixamorig:LeftUpLeg
	{
		OFFSET 18.168400 -13.561905 -0.039000
		CHANNELS 3 Xrotation Yrotation Zrotation
		JOINT mixamorig:LeftLeg
		{
			OFFSET 0.577358 -80.825211 -3.695000
			CHANNELS 3 Xrotation Yrotation Zrotation
			JOINT mixamorig:LeftFoot
			{
				OFFSET -0.577356 -83.370262 -6.520700
				CHANNELS 3 Xrotation Yrotation Zrotation
				JOINT mixamorig:LeftToeBase
				{
					OFFSET 0.750401 -20.798306 25.135401
					CHANNELS 3 Xrotation Yrotation Zrotation
					JOINT mixamorig:LeftToe_End
					{
						OFFSET -0.000500 0.001200 19.917799
						CHANNELS 3 Xrotation Yrotation Zrotation
						End Site
						{
							OFFSET 0.000000 19.917805 0.000000
						}
					}
				}
			}
		}
	}
	JOINT mixamorig:RightUpLeg
	{
		OFFSET -18.162500 -13.585098 -0.041000
		CHANNELS 3 Xrotation Yrotation Zrotation
		JOINT mixamorig:RightLeg
		{
			OFFSET -0.595024 -80.945297 -3.631900
			CHANNELS 3 Xrotation Yrotation Zrotation
			JOINT mixamorig:RightFoot
			{
				OFFSET 0.595024 -83.218193 -6.561200
				CHANNELS 3 Xrotation Yrotation Zrotation
				JOINT mixamorig:RightToeBase
				{
					OFFSET -0.753601 -20.807106 25.115000
					CHANNELS 3 Xrotation Yrotation Zrotation
					JOINT mixamorig:RightToe_End
					{
						OFFSET 0.000299 0.001700 19.918200
						CHANNELS 3 Xrotation Yrotation Zrotation
						End Site
						{
							OFFSET 0.000000 19.918203 0.000000
						}
					}
				}
			}
		}
	}
}
MOTION
Frames: 5
Frame Time: 0.033333
12.226427 196.319839 -3.282463 -3.781786 -60.967723 -6.059042 0.683413 -6.680013 -0.654215 0.542794 -6.239164 -0.248727 0.537536 -5.878602 1.838827 12.519496 -2.021896 4.282700 16.713645 -60.454175 14.174529 0.000000 0.000001 0.000001 0.000000 0.000001 0.000001 0.000000 0.000001 0.000001 1.651737 8.447285 -14.931369 11.755289 -24.751161 -59.241338 -0.000003 -20.245558 -0.000002 1.871464 7.438317 -0.035047 0.626839 4.866810 -24.260844 0.280878 1.793893 -17.795921 0.033185 0.623435 -6.095429 -0.000000 -0.000001 0.000001 0.884377 2.908519 10.661992 12.534047 25.940765 0.722016 -17.410598 -14.433989 3.909284 0.000003 -0.000000 -0.000003 1.697575 6.094298 -21.113530 0.259952 1.727354 -17.114482 0.037497 0.662484 -6.478829 -0.000001 0.000000 -0.000002 -1.345775 1.478001 -30.072821 0.424910 2.192290 -21.935282 0.028121 0.573967 -5.610083 -0.000002 0.000001 0.000001 -3.979393 -2.516179 -32.176208 0.486108 2.338429 -23.483657 0.054102 0.795221 -7.784483 0.000000 0.000000 -0.000001 3.184130 -7.251561 11.073131 0.150781 -15.546486 57.491656 0.000055 80.295397 -0.000025 -4.166923 19.724357 -11.803302 5.136266 -9.944229 40.351815 0.919826 -2.780740 36.601088 0.357900 -1.792086 22.586548 -0.000001 -0.000001 -0.000002 -2.415116 -10.842655 -11.463979 16.981338 -25.374182 5.927835 -15.637141 12.556435 -16.008188 -0.000001 0.000001 -0.000000 2.020102 -12.203180 11.526107 0.201329 -1.355888 16.891131 0.060577 -0.749583 9.242114 -0.000001 -0.000000 0.000001 2.494714 -6.755177 42.447539 1.842905 -3.712175 52.792141 0.801643 -2.614278 34.090256 -0.000001 0.000001 0.000001 1.245495 -5.692217 61.183564 2.499474 -4.128165 62.373827 0.988750 -2.871093 37.998928 -0.000001 0.000002 -0.000001 -14.588529 25.867052 9.037759 29.797028 5.899131 -0.209449 -16.046665 21.271830 -2.495650 0.497563 -0.008338 0.842846 -0.000000 0.000000 -0.000000 -19.892173 3.936638 3.337251 24.493893 -3.871805 0.511297 -4.632041 27.465388 1.904418 -0.901489 -0.000009 -0.000000 -0.000000 -0.000004 -0.000000 
11.986781 196.416855 -3.540775 -3.852399 -60.901942 -6.115104 0.648091 -6.595077 -0.632314 0.507467 -6.153918 -0.226679 0.502014 -5.793408 1.860901 12.484601 -2.018364 4.275360 16.800633 -60.445617 14.255855 -0.000001 0.000000 -0.000001 -0.000001 0.000000 -0.000001 -0.000001 0.000000 -0.000001 1.648675 8.441319 -14.985232 11.185143 -24.732795 -59.778758 0.000004 -19.066548 0.000010 2.335874 6.932676 -0.336763 0.649231 4.916519 -24.223090 0.280279 1.792087 -17.777046 0.032276 0.614790 -6.010528 -0.000001 0.000001 0.000002 1.420107 3.252361 10.820360 12.485850 25.875579 0.746152 -17.401551 -14.405161 3.912965 -0.000001 0.000000 -0.000000 1.746625 6.214358 -21.078343 0.257857 1.720570 -17.045309 0.036509 0.653773 -6.393151 -0.000001 0.000000 -0.000000 -1.326672 1.510136 -30.063860 0.424331 2.190802 -21.919918 0.027737 0.570087 -5.571896 0.000002 -0.000000 -0.000003 -3.977485 -2.526987 -32.132130 0.486278 2.338780 -23.487728 0.054157 0.795600 -7.788082 -0.000001 -0.000000 -0.000001 3.172344 -7.199725 11.109243 0.067866 -15.805225 57.303436 0.000144 80.163588 -0.000136 -4.267220 19.792447 -11.937749 5.094231 -10.010334 39.652376 0.902701 -2.757538 36.246322 0.346932 -1.765533 22.233700 -0.000001 -0.000001 -0.000001 -2.212339 -11.152367 -11.281965 16.971169 -25.341084 5.923937 -15.256947 11.778381 -16.194822 -0.000005 0.000002 -0.000003 1.995980 -12.298197 11.238433 0.199988 -1.351465 16.834477 0.059853 -0.745111 9.186505 -0.000000 -0.000001 -0.000001 2.500369 -6.788086 41.887583 1.814812 -3.690709 52.356846 0.781864 -2.584831 33.654128 -0.000001 -0.000002 0.000001 1.349246 -5.732889 60.536178 2.453802 -4.103995 61.737308 0.957917 -2.831236 37.379187 0.000001 0.000001 -0.000004 -14.460183 25.847328 9.119288 29.581932 5.889443 -0.209439 -15.852586 21.217691 -2.614721 0.482368 -0.007838 0.817172 -0.000000 -0.000000 0.000000 -19.631186 3.091769 3.178131 24.230487 -3.541059 0.579110 -4.416051 27.933544 1.611765 -0.929899 0.000009 0.000003 -0.000000 0.000001 0.000000 
11.781826 196.513138 -3.773543 -3.876342 -60.950484 -6.116416 0.610503 -6.507198 -0.640545 0.470504 -6.065855 -0.231047 0.464951 -5.705381 1.856026 12.441135 -2.010192 4.269943 16.689487 -60.280442 14.222943 0.000001 0.000001 -0.000000 0.000001 0.000001 -0.000000 0.000001 0.000001 -0.000000 1.667408 8.499253 -14.884097 10.675478 -24.434104 -60.378251 0.000010 -18.389069 0.000003 2.851293 6.653356 -0.309103 0.659150 4.938370 -24.242672 0.280395 1.792398 -17.780488 0.031790 0.610151 -5.965184 -0.000003 -0.000001 -0.000001 1.969976 3.555097 10.993583 12.455314 25.834060 0.762038 -17.391238 -14.371514 3.917599 0.000001 0.000001 -0.000002 1.784069 6.295670 -21.106256 0.256977 1.717691 -17.015932 0.035982 0.649117 -6.347517 0.000001 0.000001 -0.000003 -1.318599 1.530826 -30.106863 0.424187 2.190517 -21.916761 0.027595 0.568627 -5.557622 0.000001 0.000000 0.000002 -3.982714 -2.524184 -32.168320 0.486570 2.339457 -23.494792 0.054233 0.796209 -7.794151 -0.000001 0.000000 0.000005 3.157120 -7.119022 11.226876 -0.021281 -15.972471 57.150870 0.000006 80.025064 0.000025 -4.396422 19.904057 -12.017958 5.025725 -10.043415 38.967749 0.890019 -2.740220 35.982434 0.338860 -1.745607 21.969510 0.000000 0.000001 -0.000000 -2.102172 -11.356778 -11.067419 16.969089 -25.330419 5.921608 -14.927845 11.120725 -16.351355 -0.000003 0.000001 -0.000002 1.967722 -12.328729 11.013256 0.198019 -1.344906 16.750260 0.058798 -0.738396 9.102998 0.000001 -0.000001 0.000000 2.504847 -6.821295 41.324472 1.796132 -3.676290 52.066419 0.768759 -2.565050 33.362339 -0.000000 0.000001 0.000001 1.489990 -5.797155 59.824985 2.414553 -4.082675 61.186972 0.931696 -2.796624 36.845035 -0.000001 0.000000 -0.000003 -14.319415 25.767498 9.116066 29.344596 6.091868 -0.184134 -15.636227 21.155939 -2.783166 0.474221 -0.007576 0.803430 -0.000000 -0.000001 -0.000000 -19.448694 2.713839 3.131737 23.962523 -3.130300 0.655453 -4.187022 27.955181 1.351637 -1.019484 -0.000001 -0.000001 0.000000 -0.000004 -0.000000 
11.623071 196.594040 -3.982927 -3.860185 -61.085981 -6.075867 0.577615 -6.456465 -0.656679 0.438484 -6.014874 -0.240649 0.432777 -5.654322 1.845087 12.384001 -1.994578 4.256740 16.313214 -59.984743 14.043123 -0.000002 -0.000003 0.000001 -0.000002 -0.000003 0.000001 -0.000002 -0.000003 0.000001 1.690862 8.572236 -14.742753 10.450379 -24.076560 -60.837827 -0.000005 -18.106700 -0.000007 3.113141 6.532564 -0.208582 0.654642 4.928050 -24.293149 0.280812 1.793709 -17.793896 0.031625 0.608615 -5.949883 -0.000001 -0.000001 0.000001 2.497759 3.751744 11.183228 12.418558 25.784487 0.780101 -17.380846 -14.337277 3.922392 0.000001 0.000001 0.000000 1.801511 6.322790 -21.130642 0.257144 1.718293 -17.021798 0.035879 0.648059 -6.337204 -0.000001 -0.000000 -0.000001 -1.321606 1.532267 -30.150566 0.424154 2.190434 -21.915902 0.027481 0.567349 -5.545133 0.000001 0.000000 0.000001 -4.002089 -2.533555 -32.240361 0.487269 2.341106 -23.512429 0.054456 0.797802 -7.809927 -0.000002 0.000000 0.000002 3.141783 -7.043830 11.370151 -0.128225 -15.992697 57.078842 -0.000044 79.972650 0.000036 -4.475380 20.064270 -12.129043 4.906273 -10.014068 38.276746 0.885133 -2.733414 35.879113 0.335578 -1.737492 21.862158 0.000001 -0.000001 0.000001 -2.068100 -11.473119 -10.835233 16.979172 -25.365431 5.919629 -14.684217 10.683790 -16.459677 -0.000002 -0.000001 -0.000004 1.936497 -12.294283 10.853460 0.196917 -1.341268 16.703566 0.058184 -0.734700 9.057081 -0.000001 0.000000 0.000000 2.510719 -6.858859 40.737895 1.790551 -3.671931 51.979297 0.764765 -2.558997 33.273075 0.000000 0.000000 0.000001 1.652861 -5.879131 59.070331 2.376921 -4.061824 60.657243 0.906805 -2.763101 36.331460 0.000000 0.000001 -0.000002 -14.216491 25.740521 9.104720 29.131996 6.330959 -0.158077 -15.440536 21.093337 -2.945030 0.470200 -0.007441 0.796559 -0.000000 0.000000 -0.000000 -19.355141 2.706216 3.195337 23.736004 -3.017768 0.669697 -4.008215 27.966546 1.209045 -1.135756 -0.000001 0.000000 0.000000 -0.000001 -0.000000 
11.522506 196.666061 -4.151070 -3.808715 -61.272917 -6.007146 0.556327 -6.435230 -0.658232 0.417089 -5.994125 -0.243120 0.411561 -5.633644 1.844498 12.317327 -1.971726 4.235922 15.621175 -59.579146 13.692642 0.000001 0.000002 0.000000 0.000001 0.000002 0.000000 0.000001 0.000002 0.000000 1.707832 8.626761 -14.638359 10.386869 -23.772456 -61.155922 0.000001 -17.886015 -0.000007 3.146093 6.418693 -0.298712 0.643885 4.903972 -24.346969 0.281456 1.795734 -17.814593 0.031600 0.608240 -5.946338 -0.000000 -0.000002 -0.000002 3.007551 3.861182 11.379724 12.369117 25.718054 0.803138 -17.372629 -14.311627 3.927731 -0.000001 0.000000 -0.000001 1.807082 6.320617 -21.110026 0.257514 1.719476 -17.034087 0.035832 0.647702 -6.333719 0.000001 0.000000 0.000001 -1.328098 1.522750 -30.162522 0.424179 2.190500 -21.916617 0.027232 0.564797 -5.520132 -0.000001 -0.000001 -0.000001 -4.024078 -2.550594 -32.301443 0.488319 2.343499 -23.537751 0.054782 0.800173 -7.833188 -0.000002 -0.000002 0.000002 3.125827 -6.972979 11.530865 -0.256664 -15.961705 56.944008 0.000074 80.107122 -0.000094 -4.434505 20.233327 -12.317039 4.760087 -9.939358 37.633420 0.896402 -2.748955 36.115213 0.342594 -1.754837 22.091694 0.000001 -0.000000 0.000002 -2.046412 -11.576115 -10.606871 16.987374 -25.405889 5.917454 -14.529619 10.488348 -16.519159 0.000001 0.000000 -0.000002 1.920232 -12.238076 10.813442 0.199040 -1.348336 16.794209 0.059391 -0.742158 9.149818 0.000001 0.000000 -0.000002 2.503308 -6.879399 40.208159 1.803879 -3.682280 52.186853 0.773922 -2.572877 33.477629 -0.000001 -0.000002 -0.000000 1.800452 -5.958856 58.366487 2.346774 -4.044777 60.231074 0.886994 -2.736019 35.918882 0.000001 0.000001 0.000003 -14.160160 25.825913 9.113337 28.936103 6.502902 -0.138764 -15.277006 21.030168 -3.058967 0.470682 -0.007472 0.797548 -0.000000 -0.000000 0.000000 -19.312095 2.836054 3.283198 23.519263 -2.984466 0.672346 -3.838411 27.967007 1.116430 -1.176525 -0.000011 -0.000001 0.000000 0.000001 0.000000 
